<svg width="200" height="30" viewBox="0 0 200 30" fill="none" xmlns="http://www.w3.org/2000/svg">
<path d="M82.6036 10.3804C79.6138 1.10808 68.2978 -2.55112 60.4159 3.18855C60.2408 3.31656 60.0672 3.44604 59.8303 3.62113C57.1319 1.64512 54.1627 0.479825 50.7551 0.470997C47.3372 0.460698 44.3533 1.58038 41.7005 3.57699C35.5915 -0.62809 29.5473 -0.616319 23.4486 3.59023C21.5462 2.13802 19.401 1.15517 16.9998 0.67257C9.25174 -0.885574 1.33156 4.67754 0.192745 12.5212C0.169203 12.6875 0.06621 12.842 0 13.0024V16.0642C0.306037 17.2898 0.495839 18.5596 0.93871 19.7352C4.27716 28.6059 15.0826 31.8251 22.8984 26.3135C23.0749 26.1885 23.2471 26.0575 23.481 25.8854C26.175 27.8805 29.153 29.0281 32.5547 29.0281C35.9623 29.0281 38.9506 27.904 41.6181 25.9192C47.7124 30.0978 53.7551 30.1199 59.8641 25.9192C61.8387 27.3802 64.0501 28.366 66.5248 28.8531C74.1213 30.3479 82.1681 24.5744 83.1274 16.8779C83.1524 16.6748 83.2568 16.4806 83.3245 16.2834V13.4393C83.0876 12.4182 82.9243 11.3751 82.6036 10.3804ZM21.1475 23.571C16.9542 27.1066 10.1772 26.5592 6.22815 22.3689C2.1967 18.0917 2.1967 11.4251 6.22668 7.13762C10.161 2.95314 16.935 2.40286 21.1504 5.93112C17.1293 11.8091 17.166 17.6915 21.1489 23.571H21.1475ZM23.4898 21.0859C20.7164 17.8975 20.6987 11.7753 23.5001 8.37354C26.3089 11.8547 26.2809 17.9475 23.4898 21.0859ZM25.8234 23.5724C29.8342 17.7209 29.8533 11.8385 25.8469 5.96496C26.3869 5.47942 27.0004 5.06892 27.6655 4.73345C27.9318 4.59956 28.2055 4.47744 28.485 4.36856C28.6248 4.31412 28.7675 4.26263 28.9102 4.21407C30.0579 3.82417 31.3011 3.62848 32.5459 3.62701C35.0369 3.62407 37.5381 4.39652 39.3081 5.94583C36.5979 9.90961 35.7343 13.8734 36.6803 17.8342C36.7436 18.0976 36.8142 18.3624 36.8937 18.6258C37.0585 19.1761 37.26 19.7278 37.494 20.2781C37.9648 21.3801 38.5739 22.4807 39.3228 23.5813C35.4827 26.6666 29.8372 26.6725 25.8219 23.571L25.8234 23.5724ZM41.7108 21.0579C39.0183 18.3521 38.6931 11.8106 41.6564 8.41179C44.4416 11.4619 44.4681 17.615 41.7108 21.0579ZM57.4585 23.5342C54.1701 26.6652 47.73 26.6858 43.9914 23.5592C48.0081 17.6871 48.0008 11.8003 43.9987 5.92082C47.7874 2.84132 53.4991 2.83102 57.4879 5.91788C53.4609 11.8371 53.4932 17.6827 57.4585 23.5327V23.5342ZM59.8435 21.0844C57.0392 18.0844 56.998 11.9415 59.7597 8.44269C62.3992 11.0661 62.8568 17.4855 59.8435 21.0844ZM77.117 22.3144C73.2533 26.5225 66.5749 27.0977 62.1462 23.5695C63.2791 21.901 64.0913 20.2399 64.5827 18.5817C64.6607 18.3168 64.7313 18.052 64.7946 17.7871C65.7303 13.8189 64.8416 9.87283 62.1771 5.92965C63.9868 4.3921 66.2865 3.62701 68.6377 3.60053C70.3165 3.5814 72.0217 3.93893 73.5931 4.65989C74.8496 5.23665 76.0208 6.04736 77.0228 7.08465C81.0955 11.2956 81.1367 17.9372 77.117 22.3144Z" fill="#231F20"/>
<path d="M98.5256 4.5745C98.2342 4.02128 97.8811 3.86385 97.3102 3.89327C96.7276 3.92417 96.2303 3.86532 95.861 4.55832C94.2822 7.50981 92.6182 10.4157 90.9909 13.3422C90.7849 13.7115 90.6083 14.0955 90.4053 14.4972C92.5578 14.8297 92.6961 14.7664 93.6643 13.0582C93.7364 12.9302 93.8261 12.8096 93.8791 12.6742C94.0365 12.2666 94.3323 12.1666 94.7472 12.1769C95.7742 12.2019 96.8188 12.2975 97.8282 12.1592C99.4687 11.9356 100.543 12.4461 101.027 14.0779C101.084 14.2721 101.328 14.5369 101.501 14.5487C102.244 14.6002 102.993 14.5708 103.814 14.5708C103.746 14.3707 103.727 14.2794 103.686 14.2C101.961 10.9925 100.219 7.79673 98.5256 4.57303V4.5745ZM95.0003 10.5511C95.7168 9.03706 96.3818 7.63194 97.1146 6.08556C97.8237 7.61869 98.4755 9.0297 99.1788 10.5511H95.0003Z" fill="#CF202A"/>
<path d="M125.934 3.70333C125.283 3.65919 124.62 3.61946 123.979 3.70774C123.867 3.72246 123.792 4.34336 123.783 4.68765C123.757 5.67786 123.774 6.66807 123.774 7.801C121.354 6.27375 118.747 6.4253 117.268 8.04083C116.048 9.37386 115.965 11.7618 117.083 13.2979C118.366 15.0591 120.81 15.2769 123.704 13.8555C123.751 14.6913 124.345 14.6059 124.912 14.5824C125.156 14.5721 125.402 14.5721 125.646 14.5839C126.021 14.603 126.151 14.4529 126.148 14.063C126.117 10.7819 126.109 7.49937 126.084 4.2183C126.084 4.03879 125.999 3.70627 125.936 3.70186L125.934 3.70333ZM121.219 13.4289C119.618 13.42 118.665 12.4239 118.663 10.7599C118.663 9.18405 119.725 8.07319 121.248 8.05848C122.761 8.04377 123.77 9.09577 123.772 10.6892C123.772 12.4269 122.83 13.4392 121.219 13.4303V13.4289Z" fill="#CF202A"/>
<path d="M145.296 3.91399C143.561 3.82424 141.82 3.88604 140.083 3.84778C139.55 3.83601 139.482 4.10674 139.485 4.53048C139.496 6.12247 139.49 7.71298 139.49 9.30496H139.493C139.493 10.8719 139.5 12.4389 139.487 14.0059C139.484 14.3619 139.487 14.6283 139.965 14.6224C141.875 14.6003 143.788 14.6709 145.693 14.5709C147.592 14.4708 149.102 13.5807 149.783 11.7356C150.088 10.9102 150.153 9.96265 150.16 9.06955C150.185 5.93266 148.439 4.07437 145.297 3.91399H145.296ZM148.084 11.6164C147.585 12.6493 146.748 13.2408 145.6 13.2879C144.257 13.3438 142.911 13.3261 141.566 13.36C141.11 13.3717 140.982 13.1775 140.991 12.7435C141.014 11.5693 140.998 10.3952 140.998 9.2211C140.998 8.07051 141.011 6.9214 140.991 5.77229C140.982 5.3044 141.141 5.11313 141.626 5.12343C142.775 5.14697 143.927 5.10283 145.075 5.13961C146.783 5.19405 148.025 6.22693 148.413 7.8969C148.709 9.16666 148.661 10.4232 148.084 11.6179V11.6164Z" fill="#231F20"/>
<path d="M114.201 11.6535C114.196 10.1159 114.201 8.57838 114.201 6.99669H111.886C111.886 7.75296 111.886 8.43713 111.886 9.1213C111.886 9.80694 111.908 10.4941 111.876 11.1782C111.808 12.6025 110.859 13.4529 109.411 13.422C108.092 13.3941 107.534 12.7349 107.51 11.1753C107.507 11.0031 107.512 10.8325 107.512 10.6603C107.512 9.44352 107.512 8.2282 107.512 6.97168H105.264C105.264 8.71374 105.224 10.3543 105.275 11.9904C105.318 13.3514 106.021 14.2371 107.338 14.6167C109.035 15.1067 110.622 14.9242 111.998 13.4985C112.072 13.9076 112.124 14.2048 112.191 14.5785C112.713 14.5785 113.224 14.5594 113.731 14.5844C114.177 14.6064 114.253 14.396 114.234 14.0017C114.198 13.219 114.203 12.4347 114.202 11.6505L114.201 11.6535Z" fill="#CF202A"/>
<path d="M190.447 7.04591C189.544 6.75459 188.509 6.65307 187.565 6.75459C185.203 7.00766 183.835 8.68057 183.947 11.0215C184.012 12.3707 184.39 13.6331 185.711 14.2761C187.509 15.1515 189.361 15.0985 191.173 14.2805C191.988 13.9126 192.35 13.1858 192.564 12.1147C191.93 12.2515 191.162 12.2015 190.999 12.4913C190.312 13.7169 189.252 13.8685 188.053 13.8302C186.482 13.7802 185.601 12.8489 185.624 11.1554H192.589C192.717 8.8483 192.113 7.58295 190.446 7.04591H190.447ZM185.674 10.0342C185.562 8.74089 186.582 7.79188 188.075 7.7448C190.041 7.683 191.056 8.43338 191.037 10.0342H185.674Z" fill="#231F20"/>
<path d="M157.721 6.80763C154.955 6.21763 151.604 7.42854 152.066 11.5586C152.209 12.8372 152.776 13.8995 154.06 14.4115C155.702 15.0662 157.357 15.0559 158.991 14.3968C159.888 14.0348 160.416 13.333 160.615 12.2825C159.812 12.2074 159.079 12.0029 158.715 12.9578C158.632 13.1785 158.355 13.3624 158.124 13.4831C157.209 13.9671 156.216 13.9642 155.271 13.6817C154.123 13.3389 153.538 12.2898 153.748 11.1128H160.653C160.93 8.69536 159.988 7.28876 157.721 6.80616V6.80763ZM158.445 10.0784C157.05 10.0843 155.655 10.0814 154.26 10.0784C154.073 10.0784 153.887 10.0505 153.648 10.0313C153.657 9.21179 154.007 8.63945 154.622 8.21276C155.736 7.44031 157.709 7.56978 158.573 8.48495C158.768 8.69241 158.936 8.9499 159.045 9.21474C159.328 9.90038 159.2 10.0755 158.443 10.0784H158.445Z" fill="#231F20"/>
<path d="M169.735 6.99326C168.786 6.62248 167.764 6.48124 166.788 6.8373C166.032 7.11391 165.34 7.56414 164.58 7.95698C164.544 7.66125 164.508 7.33461 164.464 6.96089H163.1V14.5191C164.544 14.7634 164.556 14.7472 164.568 13.4303C164.577 12.3048 164.518 11.1689 164.655 10.0581C164.84 8.56317 166.281 7.63182 167.924 7.79808C169.418 7.94963 170.037 8.71031 170.041 10.4068C170.044 11.6309 170.058 12.8565 170.035 14.0807C170.028 14.4588 170.141 14.6368 170.527 14.6104C170.856 14.5883 171.188 14.5736 171.452 14.5589C171.452 12.7271 171.48 10.9909 171.442 9.25617C171.417 8.12619 170.74 7.38316 169.735 6.99179V6.99326Z" fill="#231F20"/>
<path d="M180.749 7.98256C180.132 9.2332 179.503 10.4779 178.873 11.7227C178.616 12.2318 178.346 12.735 178.021 13.3603C177.066 11.4579 176.172 9.70403 175.305 7.93695C174.755 6.81579 174.419 6.65983 173.123 7.04385C174.402 9.43919 175.671 11.8345 176.96 14.2196C177.277 14.8051 178.643 14.8213 178.966 14.249C180.306 11.8639 181.629 9.46861 182.988 7.02325C181.53 6.71869 181.323 6.81874 180.749 7.98403V7.98256Z" fill="#231F20"/>
<path d="M128.724 14.5378H130.811V6.9751H128.724V14.5378Z" fill="#CF202A"/>
<path d="M198.796 6.8698C198.221 6.9522 197.676 7.29208 197.136 7.55397C196.935 7.65108 196.785 7.85413 196.589 8.02921C196.451 7.61136 196.433 7.09786 196.205 6.97721C195.889 6.80801 195.416 6.93454 194.997 6.93454V14.5546H196.436C196.436 14.2485 196.435 14.0072 196.436 13.7659C196.446 12.5904 196.395 11.4103 196.483 10.2421C196.586 8.89877 197.454 8.17782 198.772 8.18665C199.155 8.18959 199.539 8.18665 199.913 8.18665C200.132 6.90217 199.997 6.69913 198.795 6.87127L198.796 6.8698Z" fill="#231F20"/>
<path d="M129.5 3.60495C128.629 3.59171 128.629 3.60348 128.629 4.73935C128.629 5.43676 129.017 5.78498 129.793 5.784C130.92 5.784 130.923 5.784 130.918 4.77172C130.912 3.4122 131.026 3.62702 129.5 3.60495Z" fill="#CF202A"/>
<path d="M95.2908 24.9067C95.3085 24.9508 95.3159 24.9861 95.3144 25.0141C95.3129 25.042 95.3026 25.0626 95.2835 25.0773C95.2644 25.0921 95.2349 25.1009 95.1952 25.1053C95.1555 25.1097 95.1055 25.1112 95.0437 25.1112C94.9819 25.1112 94.9333 25.1097 94.8965 25.1053C94.8597 25.1009 94.8318 25.095 94.8112 25.0862C94.7906 25.0773 94.7759 25.0656 94.7656 25.0509C94.7553 25.0362 94.7465 25.0185 94.7376 24.9979L94.1932 23.4854H91.7037L91.1829 24.9891C91.177 25.0097 91.1682 25.0273 91.1564 25.042C91.1446 25.0567 91.1284 25.0685 91.1078 25.0788C91.0872 25.0891 91.0593 25.0965 91.0225 25.1024C90.9857 25.1082 90.9401 25.1112 90.8842 25.1112C90.8224 25.1112 90.7709 25.1082 90.7312 25.1024C90.69 25.0965 90.6606 25.0862 90.6414 25.0715C90.6223 25.0567 90.612 25.0362 90.6105 25.0097C90.6091 24.9832 90.6164 24.9479 90.6341 24.9052L92.6204 19.5083C92.6292 19.4848 92.6424 19.4657 92.6601 19.4495C92.6778 19.4333 92.6998 19.4215 92.7278 19.4127C92.7557 19.4039 92.7896 19.398 92.8293 19.3936C92.869 19.3892 92.9132 19.3877 92.9632 19.3877C93.0162 19.3877 93.0618 19.3892 93.1015 19.3936C93.1412 19.398 93.1751 19.4054 93.203 19.4127C93.231 19.4201 93.2531 19.4333 93.2692 19.4495C93.2854 19.4657 93.2972 19.4848 93.306 19.5083L95.2923 24.9052L95.2908 24.9067ZM92.9367 19.988H92.9323L91.8626 23.0395H94.0329L92.9367 19.988Z" fill="#231F20"/>
<path d="M104.292 25C104.292 25.0176 104.287 25.0338 104.279 25.0485C104.27 25.0633 104.255 25.075 104.233 25.0838C104.211 25.0927 104.183 25.1 104.149 25.1059C104.115 25.1118 104.073 25.1147 104.02 25.1147C103.972 25.1147 103.931 25.1118 103.897 25.1059C103.864 25.1 103.834 25.0927 103.814 25.0838C103.793 25.075 103.778 25.0633 103.769 25.0485C103.761 25.0338 103.756 25.0176 103.756 25V19.8842H103.747L101.515 25.0309C101.509 25.0426 101.501 25.0529 101.489 25.0632C101.477 25.0735 101.461 25.0824 101.44 25.0897C101.42 25.0971 101.396 25.103 101.368 25.1074C101.34 25.1118 101.308 25.1133 101.27 25.1133C101.228 25.1133 101.193 25.1118 101.165 25.1074C101.136 25.103 101.112 25.0971 101.093 25.0897C101.074 25.0824 101.059 25.0735 101.047 25.0632C101.036 25.0529 101.028 25.0426 101.025 25.0309L98.9037 19.8842H98.8993V25C98.8993 25.0176 98.8949 25.0338 98.8861 25.0485C98.8773 25.0633 98.8625 25.075 98.8405 25.0838C98.8184 25.0927 98.7905 25.1 98.7566 25.1059C98.7228 25.1118 98.6786 25.1147 98.6227 25.1147C98.5727 25.1147 98.5315 25.1118 98.4977 25.1059C98.4638 25.1 98.4373 25.0927 98.4167 25.0838C98.3961 25.075 98.3829 25.0633 98.3755 25.0485C98.3682 25.0338 98.3652 25.0176 98.3652 25V19.6914C98.3652 19.5869 98.3932 19.5134 98.4491 19.4751C98.505 19.4354 98.5594 19.4163 98.6109 19.4163H98.9008C98.9744 19.4163 99.0376 19.4236 99.0935 19.4398C99.1495 19.456 99.198 19.4795 99.2407 19.5104C99.2833 19.5413 99.3187 19.5781 99.3481 19.6223C99.3775 19.6664 99.404 19.7164 99.4275 19.7709L101.299 24.2776H101.321L103.272 19.7885C103.302 19.7179 103.332 19.659 103.366 19.6105C103.4 19.5619 103.435 19.5237 103.471 19.4942C103.508 19.4648 103.547 19.4442 103.588 19.4325C103.631 19.4207 103.677 19.4148 103.727 19.4148H104.046C104.073 19.4148 104.1 19.4192 104.13 19.428C104.159 19.4369 104.186 19.4516 104.209 19.4736C104.233 19.4957 104.252 19.5237 104.268 19.559C104.284 19.5943 104.292 19.6384 104.292 19.6899V24.9985V25Z" fill="#231F20"/>
<path d="M108.59 24.4146C108.59 24.4499 108.588 24.4808 108.585 24.5087C108.582 24.5367 108.578 24.5602 108.572 24.5808C108.566 24.6014 108.559 24.6191 108.548 24.6353C108.538 24.6514 108.515 24.6779 108.476 24.7162C108.438 24.7544 108.375 24.803 108.285 24.8604C108.195 24.9192 108.095 24.9707 107.985 25.0134C107.875 25.0561 107.754 25.0928 107.626 25.1208C107.498 25.1488 107.364 25.162 107.227 25.162C106.952 25.162 106.709 25.1164 106.497 25.0237C106.286 24.931 106.108 24.7956 105.965 24.6161C105.822 24.4366 105.713 24.2159 105.638 23.954C105.563 23.6921 105.526 23.3905 105.526 23.0492C105.526 22.6637 105.572 22.3326 105.665 22.059C105.757 21.7838 105.884 21.5587 106.044 21.3836C106.205 21.2085 106.393 21.079 106.608 20.9952C106.823 20.9113 107.052 20.8701 107.298 20.8701C107.429 20.8701 107.555 20.8819 107.675 20.9069C107.794 20.9319 107.904 20.9643 108.006 21.0055C108.106 21.0467 108.197 21.0938 108.275 21.1453C108.353 21.1968 108.412 21.2424 108.448 21.2791C108.485 21.3159 108.51 21.3439 108.523 21.363C108.537 21.3821 108.547 21.4027 108.554 21.4263C108.562 21.4498 108.566 21.4748 108.569 21.5028C108.572 21.5307 108.573 21.5631 108.573 21.6014C108.573 21.6867 108.562 21.7456 108.537 21.7794C108.512 21.8132 108.485 21.8294 108.456 21.8294C108.415 21.8294 108.365 21.8029 108.304 21.75C108.244 21.697 108.167 21.6396 108.075 21.5764C107.981 21.5131 107.867 21.4557 107.735 21.4027C107.602 21.3498 107.444 21.3233 107.26 21.3233C106.88 21.3233 106.587 21.469 106.381 21.7617C106.175 22.0545 106.072 22.4768 106.072 23.0286C106.072 23.3066 106.1 23.5494 106.156 23.7583C106.212 23.9673 106.291 24.1409 106.394 24.2807C106.497 24.4204 106.624 24.5234 106.774 24.5926C106.923 24.6617 107.09 24.6956 107.279 24.6956C107.454 24.6956 107.61 24.6676 107.744 24.6117C107.878 24.5558 107.995 24.4955 108.094 24.4278C108.192 24.3601 108.276 24.2998 108.341 24.2439C108.407 24.188 108.456 24.16 108.488 24.16C108.506 24.16 108.521 24.1659 108.534 24.1747C108.547 24.185 108.557 24.2012 108.566 24.2233C108.575 24.2454 108.581 24.2718 108.585 24.3027C108.59 24.3336 108.591 24.369 108.591 24.4101L108.59 24.4146Z" fill="#231F20"/>
<path d="M113.923 22.1677C113.923 22.6444 113.863 23.0637 113.744 23.4286C113.623 23.792 113.446 24.0966 113.213 24.3423C112.979 24.588 112.69 24.7734 112.346 24.8985C112.003 25.0235 111.593 25.0868 111.116 25.0868H109.998C109.945 25.0868 109.892 25.0677 109.836 25.0279C109.78 24.9882 109.752 24.9161 109.752 24.8116V19.6914C109.752 19.5869 109.78 19.5134 109.836 19.4751C109.892 19.4354 109.946 19.4163 109.998 19.4163H111.191C111.674 19.4163 112.08 19.4825 112.412 19.6134C112.743 19.7444 113.021 19.9312 113.245 20.1725C113.469 20.4138 113.638 20.7037 113.751 21.0406C113.864 21.3775 113.922 21.7542 113.922 22.1691L113.923 22.1677ZM113.349 22.1941C113.349 21.8646 113.308 21.5571 113.224 21.276C113.14 20.995 113.012 20.7508 112.839 20.5462C112.665 20.3417 112.444 20.1814 112.18 20.0666C111.913 19.9504 111.575 19.893 111.163 19.893H110.29V24.6101H111.167C111.553 24.6101 111.88 24.563 112.147 24.4674C112.415 24.3717 112.637 24.2261 112.815 24.026C112.993 23.8273 113.127 23.5772 113.217 23.2741C113.307 22.971 113.351 22.612 113.351 22.1941H113.349Z" fill="#231F20"/>
<path d="M118.62 22.9763C118.62 23.2927 118.579 23.5825 118.498 23.8488C118.416 24.1151 118.294 24.3461 118.132 24.5418C117.97 24.7375 117.767 24.8905 117.524 24.9994C117.281 25.1083 116.999 25.1642 116.678 25.1642C116.357 25.1642 116.097 25.1156 115.864 25.0171C115.632 24.9185 115.438 24.7787 115.282 24.5963C115.126 24.4138 115.008 24.1916 114.932 23.9327C114.854 23.6723 114.815 23.3795 114.815 23.0514C114.815 22.7232 114.855 22.4452 114.936 22.1789C115.017 21.9125 115.138 21.683 115.299 21.4888C115.461 21.2946 115.664 21.143 115.907 21.0356C116.15 20.9267 116.434 20.8738 116.758 20.8738C117.081 20.8738 117.339 20.9223 117.571 21.018C117.804 21.1151 117.996 21.2534 118.152 21.4373C118.307 21.6197 118.425 21.8419 118.503 22.1009C118.582 22.3613 118.62 22.6526 118.62 22.9778V22.9763ZM118.069 23.0249C118.069 22.7998 118.046 22.5849 118.002 22.3804C117.958 22.1759 117.886 21.9949 117.783 21.839C117.68 21.683 117.543 21.5579 117.371 21.4667C117.199 21.374 116.984 21.3284 116.727 21.3284C116.49 21.3284 116.285 21.3711 116.113 21.455C115.941 21.5403 115.8 21.658 115.689 21.8081C115.581 21.9582 115.498 22.1362 115.447 22.3407C115.394 22.5452 115.367 22.7659 115.367 23.0028C115.367 23.2397 115.389 23.4471 115.433 23.6531C115.478 23.8591 115.55 24.0401 115.653 24.1946C115.756 24.3491 115.892 24.4727 116.065 24.5624C116.237 24.6536 116.452 24.6978 116.709 24.6978C116.946 24.6978 117.15 24.6551 117.323 24.5712C117.495 24.4874 117.636 24.3697 117.746 24.2211C117.857 24.0725 117.938 23.8959 117.989 23.6899C118.041 23.4839 118.069 23.2632 118.069 23.0234V23.0249Z" fill="#231F20"/>
<path d="M123.028 25.0011C123.028 25.0188 123.023 25.035 123.015 25.0497C123.006 25.0644 122.993 25.0762 122.973 25.085C122.954 25.0938 122.928 25.1012 122.894 25.1071C122.86 25.113 122.819 25.1159 122.769 25.1159C122.716 25.1159 122.673 25.113 122.639 25.1071C122.606 25.1012 122.579 25.0938 122.56 25.085C122.541 25.0762 122.528 25.0644 122.519 25.0497C122.51 25.035 122.506 25.0188 122.506 25.0011V22.647C122.506 22.4013 122.486 22.2027 122.448 22.0482C122.41 21.8951 122.353 21.7627 122.277 21.6538C122.201 21.5435 122.104 21.4596 121.986 21.3993C121.868 21.339 121.73 21.3096 121.571 21.3096C121.37 21.3096 121.168 21.3816 120.967 21.5244C120.765 21.6671 120.553 21.8775 120.331 22.1556V25.0011C120.331 25.0188 120.327 25.035 120.318 25.0497C120.309 25.0644 120.296 25.0762 120.276 25.085C120.257 25.0938 120.231 25.1012 120.197 25.1071C120.163 25.113 120.121 25.1159 120.068 25.1159C120.018 25.1159 119.976 25.113 119.942 25.1071C119.909 25.1012 119.882 25.0938 119.862 25.085C119.841 25.0762 119.828 25.0644 119.82 25.0497C119.813 25.035 119.809 25.0188 119.809 25.0011V21.0329C119.809 21.0153 119.813 20.9991 119.82 20.9844C119.828 20.9697 119.841 20.9579 119.862 20.9476C119.882 20.9373 119.907 20.9299 119.938 20.9255C119.969 20.9211 120.009 20.9196 120.059 20.9196C120.109 20.9196 120.15 20.9211 120.181 20.9255C120.212 20.9299 120.238 20.9373 120.256 20.9476C120.274 20.9579 120.285 20.9697 120.293 20.9844C120.3 20.9991 120.303 21.0153 120.303 21.0329V21.5935C120.531 21.339 120.755 21.1551 120.974 21.0418C121.193 20.927 121.411 20.8711 121.627 20.8711C121.888 20.8711 122.107 20.9152 122.285 21.002C122.463 21.0903 122.607 21.208 122.716 21.3566C122.826 21.5052 122.904 21.6803 122.953 21.879C123.001 22.0776 123.025 22.3174 123.025 22.5984V25.0011H123.028Z" fill="#231F20"/>
<path d="M127.235 25.0016C127.235 25.0311 127.226 25.0531 127.207 25.0693C127.188 25.0855 127.163 25.0973 127.132 25.1046C127.101 25.112 127.06 25.1149 127.007 25.1149C126.957 25.1149 126.915 25.1105 126.88 25.1046C126.845 25.0973 126.818 25.0855 126.799 25.0693C126.78 25.0531 126.771 25.0311 126.771 25.0016V24.5588C126.593 24.7515 126.396 24.9001 126.181 25.006C125.966 25.112 125.743 25.1635 125.513 25.1635C125.306 25.1635 125.119 25.137 124.954 25.0825C124.789 25.0281 124.65 24.9516 124.535 24.8501C124.42 24.7486 124.333 24.6279 124.271 24.4837C124.21 24.341 124.179 24.1791 124.179 24.0011C124.179 23.7819 124.224 23.5906 124.314 23.4288C124.405 23.2669 124.533 23.1316 124.7 23.0227C124.866 22.9153 125.066 22.8329 125.3 22.7799C125.534 22.7255 125.794 22.699 126.08 22.699H126.711V22.3576C126.711 22.1884 126.693 22.0384 126.658 21.9089C126.623 21.7794 126.565 21.6705 126.487 21.5822C126.408 21.494 126.306 21.4292 126.18 21.3851C126.055 21.3409 125.9 21.3189 125.719 21.3189C125.538 21.3189 125.387 21.3395 125.245 21.3821C125.106 21.4248 124.982 21.4719 124.878 21.5249C124.773 21.5778 124.685 21.6249 124.617 21.6676C124.548 21.7102 124.499 21.7308 124.47 21.7308C124.452 21.7308 124.436 21.7279 124.421 21.722C124.407 21.7161 124.395 21.7058 124.385 21.6896C124.374 21.6735 124.367 21.6529 124.363 21.6279C124.358 21.6028 124.357 21.5734 124.357 21.5381C124.357 21.4763 124.361 21.4278 124.37 21.391C124.379 21.3542 124.401 21.3174 124.438 21.2806C124.474 21.2438 124.539 21.2012 124.633 21.1511C124.728 21.1011 124.835 21.0555 124.956 21.0128C125.076 20.9702 125.207 20.9363 125.348 20.9098C125.49 20.8834 125.629 20.8701 125.769 20.8701C126.041 20.8701 126.271 20.9025 126.458 20.9687C126.645 21.0349 126.796 21.1291 126.911 21.2512C127.027 21.3733 127.11 21.5249 127.158 21.7044C127.207 21.8839 127.233 22.0884 127.233 22.3164V25.0002L127.235 25.0016ZM126.712 23.1301H125.988C125.778 23.1301 125.594 23.1492 125.437 23.1875C125.279 23.2257 125.147 23.2816 125.042 23.3537C124.938 23.4273 124.858 23.5141 124.808 23.6171C124.757 23.7201 124.732 23.8363 124.732 23.9673C124.732 24.1953 124.804 24.3778 124.948 24.5131C125.092 24.6485 125.297 24.7162 125.56 24.7162C125.768 24.7162 125.962 24.6632 126.141 24.5558C126.321 24.4499 126.512 24.2851 126.714 24.0629V23.1286L126.712 23.1301Z" fill="#231F20"/>
<path d="M129.216 25C129.216 25.0176 129.211 25.0338 129.202 25.0485C129.194 25.0632 129.18 25.075 129.161 25.0838C129.142 25.0927 129.116 25.1 129.082 25.1059C129.048 25.1118 129.005 25.1147 128.952 25.1147C128.902 25.1147 128.861 25.1118 128.827 25.1059C128.793 25.1 128.767 25.0927 128.746 25.0838C128.726 25.075 128.712 25.0632 128.705 25.0485C128.698 25.0338 128.693 25.0176 128.693 25V19.0896C128.693 19.072 128.698 19.0558 128.705 19.0411C128.712 19.0263 128.726 19.0146 128.746 19.0043C128.767 18.994 128.793 18.9866 128.827 18.9822C128.861 18.9778 128.902 18.9763 128.952 18.9763C129.005 18.9763 129.048 18.9793 129.082 18.9822C129.116 18.9866 129.142 18.994 129.161 19.0043C129.18 19.0146 129.194 19.0263 129.202 19.0411C129.211 19.0558 129.216 19.072 129.216 19.0896V25Z" fill="#231F20"/>
<path d="M133.871 24.9974C133.871 25.018 133.867 25.0357 133.861 25.0504C133.854 25.0651 133.84 25.0769 133.821 25.0857C133.802 25.0945 133.779 25.1004 133.749 25.1048C133.72 25.1092 133.683 25.1107 133.639 25.1107C133.592 25.1107 133.553 25.1092 133.523 25.1048C133.492 25.1004 133.467 25.0945 133.448 25.0857C133.428 25.0769 133.414 25.0651 133.403 25.0504C133.393 25.0357 133.389 25.018 133.389 24.9974V24.428C133.178 24.6561 132.96 24.8356 132.735 24.965C132.51 25.0945 132.265 25.1607 131.998 25.1607C131.711 25.1607 131.467 25.1048 131.266 24.9945C131.064 24.8841 130.899 24.7326 130.773 24.5428C130.646 24.353 130.552 24.1293 130.495 23.8748C130.436 23.6188 130.406 23.3481 130.406 23.0611C130.406 22.7257 130.443 22.4211 130.517 22.1519C130.59 21.8811 130.698 21.6516 130.84 21.4618C130.983 21.272 131.161 21.1263 131.371 21.0233C131.582 20.9203 131.826 20.8703 132.104 20.8703C132.344 20.8703 132.563 20.9233 132.762 21.0307C132.96 21.1381 133.156 21.2941 133.349 21.5015V19.1121C133.349 19.0944 133.352 19.0782 133.359 19.0635C133.367 19.0488 133.38 19.037 133.4 19.0282C133.421 19.0194 133.447 19.012 133.481 19.0061C133.515 19.0003 133.556 18.9973 133.606 18.9973C133.659 18.9973 133.702 19.0003 133.736 19.0061C133.77 19.012 133.796 19.0194 133.815 19.0282C133.834 19.037 133.848 19.0488 133.857 19.0635C133.865 19.0782 133.87 19.0944 133.87 19.1121V25.0004L133.871 24.9974ZM133.349 22.1342C133.13 21.8679 132.919 21.6648 132.715 21.5251C132.512 21.3853 132.298 21.3147 132.078 21.3147C131.876 21.3147 131.704 21.3632 131.56 21.4589C131.417 21.556 131.299 21.6825 131.21 21.8399C131.118 21.9974 131.054 22.1769 131.012 22.3755C130.971 22.5741 130.951 22.7757 130.951 22.9802C130.951 23.1994 130.968 23.4128 131.004 23.6202C131.039 23.8277 131.099 24.0131 131.183 24.1749C131.267 24.3368 131.38 24.4677 131.52 24.5648C131.66 24.6634 131.836 24.712 132.047 24.712C132.151 24.712 132.254 24.6973 132.354 24.6678C132.453 24.6384 132.556 24.5899 132.662 24.5236C132.766 24.456 132.877 24.3692 132.988 24.2632C133.1 24.1573 133.221 24.0249 133.35 23.866V22.1342H133.349Z" fill="#231F20"/>
<path d="M140.327 19.6602C140.327 19.6985 140.324 19.7323 140.318 19.7618C140.312 19.7912 140.304 19.8147 140.29 19.8339C140.277 19.853 140.262 19.8677 140.245 19.878C140.227 19.8883 140.208 19.8927 140.187 19.8927H137.991V22.0409H140.073C140.093 22.0409 140.112 22.0453 140.13 22.0526C140.148 22.06 140.162 22.0718 140.176 22.0894C140.189 22.1071 140.198 22.1306 140.204 22.16C140.209 22.1895 140.212 22.2263 140.212 22.2704C140.212 22.3087 140.209 22.3425 140.204 22.3719C140.198 22.4013 140.189 22.4249 140.176 22.444C140.162 22.4631 140.148 22.4779 140.13 22.4882C140.112 22.4985 140.093 22.5029 140.073 22.5029H137.991V25.0012C137.991 25.0189 137.986 25.035 137.977 25.0498C137.969 25.0645 137.954 25.0762 137.933 25.0851C137.913 25.0939 137.886 25.1012 137.852 25.1071C137.818 25.113 137.776 25.116 137.723 25.116C137.673 25.116 137.63 25.113 137.596 25.1071C137.562 25.1012 137.533 25.0939 137.512 25.0851C137.492 25.0762 137.477 25.0645 137.468 25.0498C137.459 25.035 137.455 25.0189 137.455 25.0012V19.6926C137.455 19.5882 137.483 19.5146 137.539 19.4763C137.595 19.4366 137.649 19.4175 137.701 19.4175H140.187C140.208 19.4175 140.227 19.4219 140.245 19.4322C140.262 19.4425 140.277 19.4572 140.29 19.4778C140.304 19.4984 140.312 19.5234 140.318 19.5543C140.324 19.5852 140.327 19.6205 140.327 19.6617V19.6602Z" fill="#231F20"/>
<path d="M144.028 25.0016C144.028 25.0311 144.019 25.0531 144 25.0693C143.981 25.0855 143.956 25.0973 143.925 25.1046C143.894 25.112 143.853 25.1149 143.8 25.1149C143.75 25.1149 143.708 25.1105 143.673 25.1046C143.638 25.0973 143.611 25.0855 143.592 25.0693C143.573 25.0531 143.564 25.0311 143.564 25.0016V24.5588C143.386 24.7515 143.189 24.9001 142.974 25.006C142.759 25.112 142.536 25.1635 142.306 25.1635C142.099 25.1635 141.912 25.137 141.747 25.0825C141.582 25.0281 141.443 24.9516 141.328 24.8501C141.213 24.7486 141.126 24.6279 141.064 24.4837C141.003 24.341 140.972 24.1791 140.972 24.0011C140.972 23.7819 141.017 23.5906 141.107 23.4288C141.198 23.2669 141.326 23.1316 141.493 23.0227C141.659 22.9153 141.859 22.8329 142.093 22.7799C142.327 22.7255 142.587 22.699 142.873 22.699H143.504V22.3576C143.504 22.1884 143.486 22.0384 143.451 21.9089C143.416 21.7794 143.358 21.6705 143.28 21.5822C143.201 21.494 143.099 21.4292 142.973 21.3851C142.848 21.3409 142.693 21.3189 142.512 21.3189C142.331 21.3189 142.18 21.3395 142.038 21.3821C141.899 21.4248 141.775 21.4719 141.671 21.5249C141.566 21.5778 141.478 21.6249 141.41 21.6676C141.341 21.7102 141.292 21.7308 141.263 21.7308C141.245 21.7308 141.229 21.7279 141.214 21.722C141.2 21.7161 141.188 21.7058 141.178 21.6896C141.167 21.6735 141.16 21.6529 141.156 21.6279C141.151 21.6028 141.15 21.5734 141.15 21.5381C141.15 21.4763 141.154 21.4278 141.163 21.391C141.172 21.3542 141.194 21.3174 141.231 21.2806C141.267 21.2438 141.332 21.2012 141.426 21.1511C141.52 21.1011 141.628 21.0555 141.749 21.0128C141.869 20.9702 142 20.9363 142.141 20.9098C142.283 20.8834 142.422 20.8701 142.562 20.8701C142.834 20.8701 143.064 20.9025 143.251 20.9687C143.438 21.0349 143.589 21.1291 143.704 21.2512C143.82 21.3733 143.903 21.5249 143.951 21.7044C144 21.8839 144.026 22.0884 144.026 22.3164V25.0002L144.028 25.0016ZM143.505 23.1301H142.781C142.571 23.1301 142.387 23.1492 142.23 23.1875C142.072 23.2257 141.94 23.2816 141.835 23.3537C141.731 23.4273 141.651 23.5141 141.601 23.6171C141.55 23.7201 141.525 23.8363 141.525 23.9673C141.525 24.1953 141.597 24.3778 141.741 24.5131C141.885 24.6485 142.09 24.7162 142.353 24.7162C142.561 24.7162 142.755 24.6632 142.934 24.5558C143.114 24.4499 143.305 24.2851 143.507 24.0629V23.1286L143.505 23.1301Z" fill="#231F20"/>
<path d="M151.14 25.0016C151.14 25.0193 151.136 25.0355 151.127 25.0502C151.118 25.0649 151.105 25.0767 151.086 25.0855C151.067 25.0943 151.04 25.1017 151.006 25.1076C150.972 25.1134 150.931 25.1164 150.881 25.1164C150.828 25.1164 150.786 25.1134 150.752 25.1076C150.718 25.1017 150.691 25.0943 150.671 25.0855C150.65 25.0767 150.637 25.0649 150.63 25.0502C150.622 25.0355 150.619 25.0193 150.619 25.0016V22.5592C150.619 22.3723 150.603 22.2017 150.569 22.0487C150.535 21.8956 150.483 21.7632 150.412 21.6543C150.34 21.544 150.25 21.4601 150.14 21.3998C150.029 21.3395 149.901 21.31 149.751 21.31C149.567 21.31 149.38 21.3821 149.192 21.5249C149.004 21.6676 148.796 21.878 148.571 22.1561V25.0016C148.571 25.0193 148.567 25.0355 148.558 25.0502C148.549 25.0649 148.536 25.0767 148.517 25.0855C148.498 25.0943 148.471 25.1017 148.437 25.1076C148.404 25.1134 148.362 25.1164 148.312 25.1164C148.262 25.1164 148.221 25.1134 148.187 25.1076C148.153 25.1017 148.127 25.0943 148.106 25.0855C148.086 25.0767 148.072 25.0649 148.065 25.0502C148.058 25.0355 148.053 25.0193 148.053 25.0016V22.5592C148.053 22.3723 148.036 22.2017 148 22.0487C147.965 21.8956 147.912 21.7632 147.84 21.6543C147.768 21.544 147.678 21.4601 147.568 21.3998C147.457 21.3395 147.329 21.31 147.179 21.31C146.995 21.31 146.809 21.3821 146.62 21.5249C146.432 21.6676 146.226 21.878 146.004 22.1561V25.0016C146.004 25.0193 145.999 25.0355 145.991 25.0502C145.982 25.0649 145.968 25.0767 145.949 25.0855C145.93 25.0943 145.904 25.1017 145.87 25.1076C145.836 25.1134 145.793 25.1164 145.74 25.1164C145.69 25.1164 145.649 25.1134 145.615 25.1076C145.582 25.1017 145.555 25.0943 145.534 25.0855C145.514 25.0767 145.501 25.0649 145.493 25.0502C145.486 25.0355 145.481 25.0193 145.481 25.0016V21.0334C145.481 21.0158 145.486 20.9996 145.493 20.9849C145.501 20.9702 145.514 20.9584 145.534 20.9481C145.555 20.9378 145.58 20.9304 145.611 20.926C145.642 20.9216 145.682 20.9201 145.732 20.9201C145.782 20.9201 145.823 20.9216 145.854 20.926C145.885 20.9304 145.911 20.9378 145.929 20.9481C145.946 20.9584 145.958 20.9702 145.966 20.9849C145.973 20.9996 145.976 21.0158 145.976 21.0334V21.594C146.204 21.3395 146.42 21.1556 146.625 21.0423C146.829 20.9275 147.032 20.8716 147.234 20.8716C147.4 20.8716 147.549 20.8907 147.678 20.9304C147.808 20.9702 147.922 21.0261 148.022 21.0967C148.122 21.1688 148.206 21.2541 148.277 21.3527C148.348 21.4528 148.404 21.5616 148.448 21.6808C148.584 21.5293 148.714 21.4013 148.836 21.2968C148.958 21.1923 149.073 21.1099 149.182 21.0467C149.292 20.9834 149.397 20.9393 149.5 20.9113C149.603 20.8834 149.703 20.8701 149.803 20.8701C150.051 20.8701 150.26 20.9143 150.432 21.0011C150.605 21.0879 150.74 21.2071 150.844 21.3557C150.949 21.5043 151.022 21.6794 151.068 21.878C151.114 22.0766 151.136 22.287 151.136 22.5092V24.9987L151.14 25.0016Z" fill="#231F20"/>
<path d="M153.19 19.6935C153.19 19.8332 153.165 19.9289 153.115 19.9789C153.065 20.0289 152.975 20.0539 152.843 20.0539C152.71 20.0539 152.627 20.0304 152.578 19.9818C152.529 19.9333 152.506 19.8391 152.506 19.6993C152.506 19.5596 152.531 19.4639 152.581 19.4139C152.631 19.3639 152.721 19.3389 152.853 19.3389C152.986 19.3389 153.071 19.3624 153.118 19.411C153.165 19.4595 153.19 19.5537 153.19 19.6935ZM153.111 24.9976C153.111 25.0153 153.106 25.0315 153.097 25.0462C153.089 25.0609 153.075 25.0727 153.056 25.0815C153.037 25.0903 153.011 25.0977 152.977 25.1036C152.943 25.1094 152.9 25.1124 152.847 25.1124C152.797 25.1124 152.756 25.1094 152.722 25.1036C152.688 25.0977 152.662 25.0903 152.641 25.0815C152.621 25.0727 152.607 25.0609 152.6 25.0462C152.593 25.0315 152.588 25.0153 152.588 24.9976V21.0294C152.588 21.0118 152.593 20.9956 152.6 20.9809C152.607 20.9662 152.621 20.9544 152.641 20.9441C152.662 20.9338 152.688 20.9264 152.722 20.922C152.756 20.9176 152.797 20.9161 152.847 20.9161C152.9 20.9161 152.943 20.9176 152.977 20.922C153.011 20.9264 153.037 20.9338 153.056 20.9441C153.075 20.9544 153.089 20.9662 153.097 20.9809C153.106 20.9956 153.111 21.0118 153.111 21.0294V24.9976Z" fill="#231F20"/>
<path d="M155.082 25C155.082 25.0176 155.077 25.0338 155.069 25.0485C155.06 25.0632 155.047 25.075 155.027 25.0838C155.008 25.0927 154.982 25.1 154.948 25.1059C154.914 25.1118 154.871 25.1147 154.819 25.1147C154.769 25.1147 154.727 25.1118 154.693 25.1059C154.66 25.1 154.633 25.0927 154.613 25.0838C154.592 25.075 154.579 25.0632 154.571 25.0485C154.564 25.0338 154.56 25.0176 154.56 25V19.0896C154.56 19.072 154.564 19.0558 154.571 19.0411C154.579 19.0263 154.592 19.0146 154.613 19.0043C154.633 18.994 154.66 18.9866 154.693 18.9822C154.727 18.9778 154.769 18.9763 154.819 18.9763C154.871 18.9763 154.914 18.9793 154.948 18.9822C154.982 18.9866 155.008 18.994 155.027 19.0043C155.047 19.0146 155.06 19.0263 155.069 19.0411C155.077 19.0558 155.082 19.072 155.082 19.0896V25Z" fill="#231F20"/>
<path d="M158.089 25.0894L157.538 26.5755C157.523 26.6079 157.492 26.6343 157.445 26.6564C157.398 26.6785 157.324 26.6888 157.221 26.6888C157.168 26.6888 157.124 26.6858 157.09 26.68C157.055 26.6741 157.028 26.6638 157.009 26.6476C156.99 26.6314 156.98 26.6108 156.977 26.5858C156.974 26.5608 156.98 26.5313 156.995 26.496L157.555 25.0894C157.532 25.0806 157.511 25.0659 157.493 25.0453C157.476 25.0247 157.464 25.0041 157.458 24.9835L156.016 21.1124C156.002 21.0712 155.994 21.0389 155.994 21.0138C155.994 20.9888 156.002 20.9697 156.018 20.955C156.034 20.9403 156.06 20.9314 156.097 20.927C156.134 20.9226 156.182 20.9211 156.244 20.9211C156.306 20.9211 156.359 20.9226 156.397 20.927C156.436 20.9314 156.465 20.9373 156.487 20.9462C156.509 20.955 156.525 20.9668 156.536 20.9815C156.546 20.9962 156.555 21.0138 156.564 21.0344L157.804 24.498H157.822L159.04 21.0344C159.055 20.9932 159.074 20.9668 159.099 20.9535C159.124 20.9403 159.156 20.9314 159.197 20.927C159.238 20.9226 159.288 20.9211 159.346 20.9211C159.402 20.9211 159.447 20.9241 159.484 20.93C159.521 20.9359 159.547 20.9462 159.565 20.9609C159.583 20.9756 159.592 20.9947 159.592 21.0197C159.592 21.0447 159.584 21.0756 159.569 21.1139L158.088 25.0909L158.089 25.0894Z" fill="#231F20"/>
<path d="M166.798 22.1677C166.798 22.6444 166.738 23.0637 166.619 23.4286C166.498 23.792 166.321 24.0966 166.088 24.3423C165.854 24.588 165.565 24.7734 165.221 24.8985C164.878 25.0235 164.468 25.0868 163.991 25.0868H162.873C162.82 25.0868 162.767 25.0677 162.711 25.0279C162.655 24.9882 162.627 24.9161 162.627 24.8116V19.6914C162.627 19.5869 162.655 19.5134 162.711 19.4751C162.767 19.4354 162.821 19.4163 162.873 19.4163H164.066C164.549 19.4163 164.955 19.4825 165.287 19.6134C165.618 19.7444 165.896 19.9312 166.12 20.1725C166.344 20.4138 166.513 20.7037 166.626 21.0406C166.739 21.3775 166.797 21.7542 166.797 22.1691L166.798 22.1677ZM166.224 22.1941C166.224 21.8646 166.183 21.5571 166.099 21.276C166.015 20.995 165.887 20.7508 165.714 20.5462C165.54 20.3417 165.319 20.1814 165.055 20.0666C164.788 19.9504 164.45 19.893 164.038 19.893H163.165V24.6101H164.042C164.428 24.6101 164.754 24.563 165.022 24.4674C165.29 24.3717 165.512 24.2261 165.69 24.026C165.868 23.8273 166.002 23.5772 166.092 23.2741C166.182 22.971 166.226 22.612 166.226 22.1941H166.224Z" fill="#231F20"/>
<path d="M171.226 22.8135C171.226 22.9194 171.198 22.9915 171.142 23.0313C171.086 23.071 171.032 23.0901 170.98 23.0901H168.276C168.276 23.3358 168.299 23.558 168.348 23.7566C168.397 23.9553 168.476 24.1259 168.586 24.2672C168.697 24.4084 168.842 24.5173 169.02 24.5938C169.198 24.6703 169.418 24.7071 169.678 24.7071C169.862 24.7071 170.027 24.6909 170.174 24.6586C170.321 24.6262 170.446 24.5909 170.554 24.5511C170.659 24.5114 170.748 24.4761 170.817 24.4437C170.886 24.4114 170.935 24.3952 170.964 24.3952C170.982 24.3952 170.998 24.3996 171.013 24.4084C171.027 24.4173 171.039 24.4305 171.048 24.4496C171.057 24.4688 171.063 24.4923 171.067 24.5217C171.071 24.5511 171.073 24.5879 171.073 24.6321C171.073 24.6527 171.073 24.6718 171.068 24.6909C171.066 24.7101 171.063 24.7277 171.058 24.7439C171.054 24.7601 171.046 24.7748 171.039 24.7895C171.03 24.8042 171.018 24.8189 171.004 24.8336C170.989 24.8484 170.943 24.8734 170.868 24.9102C170.792 24.9469 170.693 24.9837 170.57 25.0205C170.448 25.0573 170.305 25.0897 170.143 25.1191C169.981 25.1485 169.806 25.1632 169.619 25.1632C169.313 25.1632 169.041 25.1176 168.804 25.0249C168.567 24.9322 168.369 24.7969 168.208 24.6174C168.048 24.4379 167.926 24.2142 167.842 23.9494C167.758 23.6845 167.717 23.3756 167.717 23.0239C167.717 22.6723 167.759 22.3868 167.846 22.1205C167.933 21.8542 168.057 21.6291 168.217 21.4437C168.377 21.2583 168.572 21.1171 168.798 21.0185C169.025 20.9199 169.276 20.8713 169.554 20.8713C169.853 20.8713 170.106 20.9214 170.317 21.0199C170.527 21.12 170.701 21.2524 170.836 21.4216C170.971 21.5894 171.071 21.785 171.135 22.0072C171.198 22.2294 171.229 22.4633 171.229 22.709V22.8135H171.226ZM170.686 22.6605C170.695 22.2397 170.598 21.9116 170.396 21.6747C170.195 21.4378 169.9 21.3201 169.515 21.3201C169.316 21.3201 169.141 21.3569 168.991 21.4319C168.841 21.507 168.713 21.6055 168.61 21.7277C168.505 21.8498 168.426 21.9925 168.372 22.1558C168.316 22.3177 168.283 22.4869 168.274 22.662H170.686V22.6605Z" fill="#231F20"/>
<path d="M175.196 25.0016C175.196 25.0311 175.187 25.0531 175.168 25.0693C175.149 25.0855 175.124 25.0973 175.093 25.1046C175.062 25.112 175.021 25.1149 174.968 25.1149C174.918 25.1149 174.876 25.1105 174.841 25.1046C174.806 25.0973 174.779 25.0855 174.76 25.0693C174.741 25.0531 174.732 25.0311 174.732 25.0016V24.5588C174.554 24.7515 174.357 24.9001 174.142 25.006C173.927 25.112 173.704 25.1635 173.474 25.1635C173.267 25.1635 173.08 25.137 172.915 25.0825C172.75 25.0281 172.61 24.9516 172.496 24.8501C172.381 24.7486 172.294 24.6279 172.232 24.4837C172.171 24.341 172.14 24.1791 172.14 24.0011C172.14 23.7819 172.185 23.5906 172.275 23.4288C172.366 23.2669 172.494 23.1316 172.661 23.0227C172.827 22.9153 173.027 22.8329 173.261 22.7799C173.495 22.7255 173.755 22.699 174.041 22.699H174.672V22.3576C174.672 22.1884 174.654 22.0384 174.619 21.9089C174.584 21.7794 174.526 21.6705 174.448 21.5822C174.369 21.494 174.267 21.4292 174.141 21.3851C174.016 21.3409 173.861 21.3189 173.68 21.3189C173.499 21.3189 173.348 21.3395 173.206 21.3821C173.067 21.4248 172.943 21.4719 172.839 21.5249C172.734 21.5778 172.646 21.6249 172.578 21.6676C172.509 21.7102 172.46 21.7308 172.431 21.7308C172.413 21.7308 172.397 21.7279 172.382 21.722C172.368 21.7161 172.356 21.7058 172.346 21.6896C172.335 21.6735 172.328 21.6529 172.324 21.6279C172.319 21.6028 172.318 21.5734 172.318 21.5381C172.318 21.4763 172.322 21.4278 172.331 21.391C172.34 21.3542 172.362 21.3174 172.399 21.2806C172.435 21.2438 172.5 21.2012 172.594 21.1511C172.688 21.1011 172.796 21.0555 172.917 21.0128C173.037 20.9702 173.168 20.9363 173.309 20.9098C173.451 20.8834 173.59 20.8701 173.73 20.8701C174.002 20.8701 174.232 20.9025 174.419 20.9687C174.606 21.0349 174.757 21.1291 174.872 21.2512C174.988 21.3733 175.071 21.5249 175.119 21.7044C175.168 21.8839 175.194 22.0884 175.194 22.3164V25.0002L175.196 25.0016ZM174.673 23.1301H173.949C173.739 23.1301 173.555 23.1492 173.398 23.1875C173.24 23.2257 173.108 23.2816 173.003 23.3537C172.899 23.4273 172.819 23.5141 172.769 23.6171C172.718 23.7201 172.693 23.8363 172.693 23.9673C172.693 24.1953 172.765 24.3778 172.909 24.5131C173.053 24.6485 173.258 24.7162 173.521 24.7162C173.729 24.7162 173.923 24.6632 174.102 24.5558C174.282 24.4499 174.473 24.2851 174.675 24.0629V23.1286L174.673 23.1301Z" fill="#231F20"/>
<path d="M177.148 25C177.148 25.0176 177.144 25.0338 177.135 25.0485C177.126 25.0632 177.113 25.075 177.094 25.0838C177.075 25.0927 177.048 25.1 177.014 25.1059C176.981 25.1118 176.938 25.1147 176.885 25.1147C176.835 25.1147 176.794 25.1118 176.76 25.1059C176.726 25.1 176.7 25.0927 176.679 25.0838C176.658 25.075 176.645 25.0632 176.638 25.0485C176.63 25.0338 176.626 25.0176 176.626 25V19.0896C176.626 19.072 176.63 19.0558 176.638 19.0411C176.645 19.0263 176.658 19.0146 176.679 19.0043C176.7 18.994 176.726 18.9866 176.76 18.9822C176.794 18.9778 176.835 18.9763 176.885 18.9763C176.938 18.9763 176.981 18.9793 177.014 18.9822C177.048 18.9866 177.075 18.994 177.094 19.0043C177.113 19.0146 177.126 19.0263 177.135 19.0411C177.144 19.0558 177.148 19.072 177.148 19.0896V25Z" fill="#231F20"/>
<path d="M181.864 22.8135C181.864 22.9194 181.836 22.9915 181.78 23.0313C181.724 23.071 181.669 23.0901 181.618 23.0901H178.914C178.914 23.3358 178.937 23.558 178.986 23.7566C179.034 23.9553 179.114 24.1259 179.224 24.2672C179.334 24.4084 179.48 24.5173 179.658 24.5938C179.836 24.6703 180.055 24.7071 180.316 24.7071C180.5 24.7071 180.664 24.6909 180.812 24.6586C180.959 24.6262 181.084 24.5909 181.191 24.5511C181.297 24.5114 181.385 24.4761 181.455 24.4437C181.524 24.4114 181.572 24.3952 181.602 24.3952C181.619 24.3952 181.636 24.3996 181.65 24.4084C181.665 24.4173 181.677 24.4305 181.686 24.4496C181.694 24.4688 181.7 24.4923 181.705 24.5217C181.709 24.5511 181.711 24.5879 181.711 24.6321C181.711 24.6527 181.711 24.6718 181.706 24.6909C181.703 24.7101 181.7 24.7277 181.696 24.7439C181.691 24.7601 181.684 24.7748 181.677 24.7895C181.668 24.8042 181.656 24.8189 181.641 24.8336C181.627 24.8484 181.581 24.8734 181.506 24.9102C181.43 24.9469 181.331 24.9837 181.207 25.0205C181.085 25.0573 180.943 25.0897 180.781 25.1191C180.619 25.1485 180.444 25.1632 180.257 25.1632C179.951 25.1632 179.679 25.1176 179.442 25.0249C179.205 24.9322 179.006 24.7969 178.846 24.6174C178.686 24.4379 178.563 24.2142 178.48 23.9494C178.396 23.6845 178.354 23.3756 178.354 23.0239C178.354 22.6723 178.397 22.3868 178.484 22.1205C178.571 21.8542 178.694 21.6291 178.855 21.4437C179.015 21.2583 179.209 21.1171 179.436 21.0185C179.663 20.9199 179.914 20.8713 180.192 20.8713C180.491 20.8713 180.744 20.9214 180.954 21.0199C181.165 21.12 181.338 21.2524 181.474 21.4216C181.609 21.5894 181.709 21.785 181.772 22.0072C181.836 22.2294 181.867 22.4633 181.867 22.709V22.8135H181.864ZM181.324 22.6605C181.332 22.2397 181.235 21.9116 181.034 21.6747C180.832 21.4378 180.538 21.3201 180.152 21.3201C179.954 21.3201 179.779 21.3569 179.629 21.4319C179.479 21.507 179.351 21.6055 179.248 21.7277C179.143 21.8498 179.064 21.9925 179.009 22.1558C178.953 22.3177 178.921 22.4869 178.912 22.662H181.324V22.6605Z" fill="#231F20"/>
<path d="M185.265 21.2357C185.265 21.2799 185.265 21.3167 185.261 21.3475C185.258 21.3784 185.253 21.4035 185.246 21.4226C185.239 21.4417 185.23 21.4564 185.219 21.4667C185.209 21.477 185.196 21.4814 185.178 21.4814C185.152 21.4814 185.121 21.4756 185.086 21.4623C185.05 21.4491 185.009 21.4358 184.963 21.4211C184.916 21.4064 184.865 21.3932 184.81 21.3799C184.755 21.3667 184.694 21.3608 184.627 21.3608C184.547 21.3608 184.471 21.3784 184.394 21.4108C184.318 21.4447 184.238 21.4991 184.156 21.5727C184.072 21.6477 183.985 21.7463 183.892 21.8684C183.8 21.9905 183.698 22.1421 183.588 22.3201V25.0038C183.588 25.0215 183.583 25.0377 183.575 25.0524C183.566 25.0671 183.552 25.0789 183.533 25.0877C183.514 25.0965 183.488 25.1039 183.454 25.1098C183.42 25.1156 183.377 25.1186 183.324 25.1186C183.274 25.1186 183.233 25.1156 183.199 25.1098C183.165 25.1039 183.139 25.0965 183.118 25.0877C183.098 25.0789 183.085 25.0671 183.077 25.0524C183.07 25.0377 183.065 25.0215 183.065 25.0038V21.0356C183.065 21.018 183.07 21.0018 183.077 20.9871C183.085 20.9724 183.098 20.9606 183.118 20.9503C183.139 20.94 183.164 20.9326 183.195 20.9282C183.226 20.9238 183.266 20.9223 183.316 20.9223C183.366 20.9223 183.407 20.9238 183.438 20.9282C183.469 20.9326 183.495 20.94 183.513 20.9503C183.53 20.9606 183.542 20.9724 183.55 20.9871C183.557 21.0018 183.56 21.018 183.56 21.0356V21.6624C183.675 21.4962 183.779 21.3608 183.876 21.2593C183.973 21.1577 184.064 21.0768 184.153 21.0209C184.241 20.9635 184.326 20.9253 184.409 20.9047C184.493 20.8841 184.578 20.8738 184.665 20.8738C184.703 20.8738 184.747 20.8752 184.796 20.8797C184.846 20.8841 184.899 20.8914 184.956 20.9032C185.013 20.915 185.065 20.9282 185.109 20.9444C185.153 20.9606 185.186 20.9753 185.203 20.9885C185.221 21.0018 185.233 21.0136 185.239 21.0239C185.244 21.0342 185.25 21.0474 185.253 21.0636C185.258 21.0798 185.261 21.1018 185.262 21.1298C185.262 21.1577 185.264 21.1931 185.264 21.2372L185.265 21.2357Z" fill="#231F20"/>
<path d="M188.302 23.945C188.302 24.1348 188.267 24.3054 188.197 24.4555C188.127 24.6056 188.027 24.7336 187.897 24.8395C187.768 24.9455 187.612 25.0249 187.431 25.0808C187.25 25.1367 187.05 25.1647 186.831 25.1647C186.694 25.1647 186.563 25.1529 186.441 25.1323C186.319 25.1103 186.207 25.0823 186.108 25.0485C186.01 25.0146 185.924 24.9793 185.857 24.9411C185.787 24.9028 185.737 24.869 185.705 24.8395C185.673 24.8101 185.649 24.7733 185.634 24.7292C185.62 24.685 185.612 24.6262 185.612 24.5541C185.612 24.5158 185.615 24.482 185.621 24.4526C185.627 24.4231 185.634 24.3981 185.643 24.3775C185.652 24.3569 185.664 24.3422 185.679 24.3319C185.693 24.3216 185.709 24.3172 185.727 24.3172C185.759 24.3172 185.807 24.3378 185.867 24.379C185.927 24.4202 186.005 24.4643 186.096 24.5129C186.189 24.5614 186.298 24.6056 186.424 24.6468C186.551 24.688 186.698 24.7086 186.866 24.7086C187 24.7086 187.123 24.6939 187.234 24.6644C187.344 24.635 187.441 24.5909 187.524 24.5335C187.606 24.4746 187.669 24.3996 187.715 24.3084C187.76 24.2157 187.783 24.1083 187.783 23.9862C187.783 23.864 187.753 23.7596 187.694 23.6742C187.635 23.5889 187.559 23.5153 187.465 23.4535C187.371 23.3917 187.262 23.3358 187.14 23.2873C187.019 23.2387 186.894 23.1887 186.767 23.1387C186.641 23.0872 186.516 23.0313 186.395 22.9695C186.274 22.9077 186.166 22.8341 186.07 22.7458C185.974 22.6575 185.898 22.5531 185.84 22.4295C185.782 22.3074 185.752 22.1588 185.752 21.9866C185.752 21.8498 185.779 21.7144 185.832 21.5805C185.884 21.4481 185.965 21.3289 186.074 21.223C186.183 21.1171 186.324 21.0332 186.495 20.9684C186.666 20.9037 186.869 20.8713 187.103 20.8713C187.201 20.8713 187.3 20.8787 187.399 20.8949C187.497 20.9111 187.585 20.9317 187.666 20.9581C187.747 20.9846 187.816 21.0126 187.875 21.0435C187.934 21.0744 187.978 21.1009 188.009 21.1244C188.04 21.1479 188.061 21.1671 188.071 21.1833C188.081 21.1994 188.089 21.2156 188.093 21.2333C188.097 21.2509 188.1 21.2715 188.103 21.2966C188.106 21.3216 188.108 21.351 188.108 21.3863C188.108 21.4216 188.105 21.4525 188.102 21.4805C188.097 21.5084 188.092 21.532 188.083 21.5526C188.074 21.5732 188.064 21.5879 188.05 21.5982C188.037 21.6085 188.022 21.6129 188.005 21.6129C187.981 21.6129 187.946 21.5967 187.9 21.5643C187.855 21.532 187.791 21.4967 187.716 21.4599C187.64 21.4216 187.55 21.3863 187.444 21.3539C187.34 21.3216 187.218 21.3054 187.081 21.3054C186.944 21.3054 186.823 21.3216 186.719 21.3539C186.614 21.3863 186.529 21.4319 186.463 21.4893C186.395 21.5482 186.345 21.6158 186.311 21.6953C186.277 21.7747 186.261 21.8601 186.261 21.9542C186.261 22.0822 186.291 22.1911 186.349 22.2779C186.408 22.3662 186.485 22.4413 186.582 22.506C186.679 22.5707 186.788 22.6266 186.911 22.6767C187.034 22.7267 187.159 22.7767 187.287 22.8253C187.413 22.8753 187.538 22.9297 187.662 22.9901C187.785 23.0504 187.894 23.1225 187.99 23.2063C188.087 23.2917 188.164 23.3932 188.222 23.5109C188.281 23.6286 188.311 23.7713 188.311 23.9376L188.302 23.945Z" fill="#231F20"/>
<path d="M192.661 25C192.661 25.0176 192.656 25.0338 192.647 25.0485C192.639 25.0632 192.625 25.075 192.606 25.0838C192.587 25.0927 192.561 25.1 192.527 25.1059C192.493 25.1118 192.452 25.1147 192.402 25.1147C192.349 25.1147 192.306 25.1118 192.272 25.1059C192.238 25.1 192.212 25.0927 192.193 25.0838C192.174 25.075 192.16 25.0632 192.152 25.0485C192.143 25.0338 192.138 25.0176 192.138 25V22.6458C192.138 22.4001 192.119 22.2015 192.081 22.047C192.043 21.894 191.985 21.7616 191.91 21.6527C191.834 21.5423 191.737 21.4585 191.619 21.3981C191.501 21.3378 191.363 21.3084 191.204 21.3084C191.002 21.3084 190.801 21.3805 190.599 21.5232C190.398 21.6659 190.186 21.8763 189.964 22.1544V25C189.964 25.0176 189.959 25.0338 189.95 25.0485C189.942 25.0632 189.928 25.075 189.909 25.0838C189.89 25.0927 189.864 25.1 189.83 25.1059C189.796 25.1118 189.753 25.1147 189.7 25.1147C189.65 25.1147 189.609 25.1118 189.575 25.1059C189.541 25.1 189.515 25.0927 189.494 25.0838C189.474 25.075 189.461 25.0632 189.453 25.0485C189.446 25.0338 189.441 25.0176 189.441 25V19.0896C189.441 19.072 189.446 19.0558 189.453 19.0411C189.461 19.0263 189.474 19.0146 189.494 19.0043C189.515 18.994 189.541 18.9866 189.575 18.9822C189.609 18.9778 189.65 18.9763 189.7 18.9763C189.753 18.9763 189.796 18.9793 189.83 18.9822C189.864 18.9866 189.89 18.994 189.909 19.0043C189.928 19.0146 189.942 19.0263 189.95 19.0411C189.959 19.0558 189.964 19.072 189.964 19.0896V21.5659C190.18 21.326 190.396 21.1495 190.613 21.0377C190.829 20.9258 191.045 20.8685 191.261 20.8685C191.522 20.8685 191.741 20.9126 191.919 20.9994C192.097 21.0877 192.241 21.2054 192.35 21.354C192.461 21.5026 192.539 21.6777 192.587 21.8763C192.636 22.0749 192.659 22.3148 192.659 22.5958V24.9985L192.661 25Z" fill="#231F20"/>
<path d="M194.713 19.6935C194.713 19.8332 194.688 19.9289 194.638 19.9789C194.588 20.0289 194.499 20.0539 194.366 20.0539C194.234 20.0539 194.15 20.0304 194.101 19.9818C194.053 19.9333 194.029 19.8391 194.029 19.6993C194.029 19.5596 194.054 19.4639 194.104 19.4139C194.154 19.3639 194.244 19.3389 194.377 19.3389C194.509 19.3389 194.594 19.3624 194.641 19.411C194.688 19.4595 194.713 19.5537 194.713 19.6935ZM194.634 24.9976C194.634 25.0153 194.63 25.0315 194.621 25.0462C194.612 25.0609 194.599 25.0727 194.58 25.0815C194.56 25.0903 194.534 25.0977 194.5 25.1036C194.466 25.1094 194.424 25.1124 194.371 25.1124C194.321 25.1124 194.279 25.1094 194.246 25.1036C194.212 25.0977 194.185 25.0903 194.165 25.0815C194.144 25.0727 194.131 25.0609 194.123 25.0462C194.116 25.0315 194.112 25.0153 194.112 24.9976V21.0294C194.112 21.0118 194.116 20.9956 194.123 20.9809C194.131 20.9662 194.144 20.9544 194.165 20.9441C194.185 20.9338 194.212 20.9264 194.246 20.922C194.279 20.9176 194.321 20.9161 194.371 20.9161C194.424 20.9161 194.466 20.9176 194.5 20.922C194.534 20.9264 194.56 20.9338 194.58 20.9441C194.599 20.9544 194.612 20.9662 194.621 20.9809C194.63 20.9956 194.634 21.0118 194.634 21.0294V24.9976Z" fill="#231F20"/>
<path d="M199.551 22.9584C199.551 23.2968 199.514 23.6029 199.439 23.8751C199.364 24.1472 199.255 24.3783 199.11 24.5681C198.965 24.7579 198.786 24.905 198.572 25.0095C198.359 25.1124 198.115 25.1654 197.84 25.1654C197.724 25.1654 197.613 25.1536 197.512 25.1286C197.41 25.1036 197.309 25.0654 197.211 25.0124C197.113 24.9594 197.016 24.8947 196.917 24.8152C196.819 24.7358 196.716 24.6416 196.608 24.5298V26.5779C196.608 26.5956 196.604 26.6117 196.595 26.6265C196.586 26.6412 196.573 26.6529 196.554 26.6632C196.535 26.6735 196.508 26.6809 196.474 26.6853C196.441 26.6897 196.398 26.6912 196.345 26.6912C196.295 26.6912 196.254 26.6897 196.22 26.6853C196.186 26.6809 196.16 26.6735 196.139 26.6632C196.118 26.6529 196.105 26.6412 196.098 26.6265C196.09 26.6117 196.086 26.5956 196.086 26.5779V21.0368C196.086 21.0162 196.09 20.9986 196.098 20.9839C196.105 20.9692 196.118 20.9574 196.137 20.9486C196.157 20.9397 196.182 20.9339 196.212 20.9294C196.243 20.925 196.28 20.9236 196.324 20.9236C196.368 20.9236 196.405 20.925 196.435 20.9294C196.464 20.9339 196.489 20.9397 196.51 20.9486C196.53 20.9574 196.545 20.9692 196.554 20.9839C196.563 20.9986 196.567 21.0162 196.567 21.0368V21.6107C196.689 21.4856 196.807 21.3767 196.917 21.284C197.028 21.1928 197.139 21.1148 197.25 21.0545C197.36 20.9927 197.475 20.9471 197.591 20.9191C197.707 20.8897 197.832 20.875 197.963 20.875C198.25 20.875 198.493 20.9294 198.696 21.0398C198.899 21.1501 199.062 21.2987 199.189 21.4885C199.316 21.6783 199.408 21.9005 199.466 22.1521C199.523 22.4037 199.551 22.6744 199.551 22.9614V22.9584ZM199.004 23.0423C199.004 22.8201 198.986 22.6068 198.951 22.3993C198.915 22.1918 198.856 22.0094 198.773 21.849C198.689 21.6887 198.578 21.5592 198.44 21.4635C198.302 21.3664 198.127 21.3193 197.916 21.3193C197.812 21.3193 197.707 21.3341 197.607 21.3635C197.507 21.3929 197.403 21.4415 197.298 21.5077C197.192 21.5754 197.084 21.6622 196.969 21.7681C196.855 21.8755 196.735 22.0065 196.61 22.1654V23.8927C196.829 24.159 197.039 24.3621 197.239 24.5048C197.44 24.646 197.65 24.7167 197.869 24.7167C198.071 24.7167 198.244 24.6681 198.389 24.5695C198.533 24.4709 198.65 24.3429 198.742 24.184C198.833 24.0251 198.899 23.8456 198.942 23.6441C198.984 23.444 199.005 23.2424 199.005 23.0408L199.004 23.0423Z" fill="#231F20"/>
</svg>
